<svg width="35" height="35" viewBox="0 0 35 35" fill="none" xmlns="http://www.w3.org/2000/svg">
<path d="M16.2556 5.40747C16.2556 4.72018 16.8127 4.16303 17.5 4.16303C18.1873 4.16303 18.7444 4.72018 18.7444 5.40747L17.5 5.40747L16.2556 5.40747ZM18.38 25.8059C17.894 26.2919 17.106 26.2919 16.62 25.8059L8.70045 17.8863C8.21446 17.4004 8.21446 16.6124 8.70045 16.1264C9.18643 15.6405 9.97437 15.6405 10.4604 16.1264L17.5 23.1661L24.5396 16.1264C25.0256 15.6404 25.8136 15.6404 26.2996 16.1264C26.7855 16.6124 26.7855 17.4004 26.2996 17.8863L18.38 25.8059ZM17.5 5.40747L18.7444 5.40747L18.7444 24.926L17.5 24.926L16.2556 24.926L16.2556 5.40747L17.5 5.40747Z" fill="#627773"/>
<line x1="1.24444" y1="-1.24444" x2="23.6444" y2="-1.24444" transform="matrix(-1 0 0 1 29.9445 29.5925)" stroke="#627773" stroke-width="2.48889" stroke-linecap="round"/>
</svg>
