<?xml version="1.0" encoding="UTF-8"?>
<svg id="Layer_2" data-name="Layer 2" xmlns="http://www.w3.org/2000/svg" viewBox="0 0 706.285 108.964">
  <defs>
    <style>
      .cls-1 {
        fill: none;
      }

      .cls-2 {
        fill: #fff;
      }
    </style>
  </defs>
  <path class="cls-2" d="M120.4,13.234c-20.35,4.75-38.6,23.49-42.07,27.37-6.29,7.02-10.84,13.36-14.3,19.5-1.16-6.15-3.49-13.78-5.12-16.69-3.08-5.49-13.42-26.71-34.96-37.81C4.69-4.316,1.42.844.55,6.474c-.87,5.63,1.53,13.43,3.06,18.41s1.75,15.38,1.53,18.41.38,15.27,10.17,16.98c-8.52,1.71-12.56,5.93-13.94,10.61-1.38,4.68-2.7,14.52,1.28,20.56,4.18,6.35,8.2,9.14,13.65,11.62,5.63,2.56,16.69.94,26.01-4.62,2.36-1.41,5.45-3.56,8.23-5.79-.21.69-.4,1.35-.56,1.97-1.39,5.28-3.58,18.09,13.27,13.28,17.93-5.12,20.06-10.86,23.34-15.03s5.57-13.2-2.05-21.12c7.04,5.87,15.78-4.53,17.62-6.17,1.85-1.65,4.76-5.22,7.76-9.15s17.89-18.61,27.62-30.92c9.73-12.31,3.21-17.01-17.14-12.27v-.01h0Z"/>
  <g>
    <rect class="cls-1" x="178.092" y="28.118" width="528.193" height="61.342"/>
    <path class="cls-2" d="M188.093,80.75c-1.363,0-2.409-.39-3.139-1.168-.73-.778-1.096-1.849-1.096-3.212v-43.873c0-1.411.39-2.493,1.168-3.249.778-.754,1.85-1.131,3.213-1.131,1.216,0,2.177.231,2.883.693.705.463,1.351,1.254,1.935,2.372l18.031,33.361h-2.336l18.031-33.361c.584-1.118,1.216-1.909,1.897-2.372.681-.462,1.63-.693,2.847-.693,1.362,0,2.409.377,3.14,1.131.729.756,1.095,1.838,1.095,3.249v43.873c0,1.363-.354,2.434-1.059,3.212-.706.778-1.765,1.168-3.176,1.168-1.362,0-2.408-.39-3.139-1.168-.729-.778-1.095-1.849-1.095-3.212v-33.798h1.605l-15.33,27.958c-.486.828-.998,1.436-1.532,1.825-.536.39-1.267.584-2.19.584s-1.679-.207-2.263-.621c-.584-.413-1.095-1.01-1.533-1.788l-15.476-28.032h1.752v33.872c0,1.363-.354,2.434-1.059,3.212-.706.778-1.765,1.168-3.176,1.168Z"/>
    <path class="cls-2" d="M263.793,80.896c-4.04,0-7.519-.755-10.438-2.264-2.921-1.508-5.172-3.649-6.753-6.424-1.582-2.774-2.372-6.059-2.372-9.854,0-3.698.766-6.936,2.299-9.709,1.533-2.773,3.65-4.951,6.352-6.533,2.701-1.581,5.778-2.372,9.234-2.372,2.529,0,4.806.414,6.825,1.241,2.019.828,3.747,2.02,5.184,3.576,1.435,1.559,2.529,3.444,3.284,5.658.754,2.214,1.132,4.708,1.132,7.482,0,.876-.305,1.545-.912,2.007-.609.464-1.473.694-2.592.694h-23.433v-5.257h20.513l-1.168,1.096c0-2.238-.329-4.112-.985-5.621-.657-1.508-1.606-2.665-2.848-3.468-1.24-.803-2.786-1.204-4.635-1.204-2.044,0-3.785.475-5.22,1.423-1.437.949-2.531,2.288-3.285,4.015-.755,1.728-1.132,3.784-1.132,6.168v.512c0,3.99.937,6.971,2.811,8.942,1.873,1.971,4.636,2.956,8.286,2.956,1.265,0,2.688-.157,4.271-.475,1.58-.315,3.077-.863,4.489-1.643,1.021-.584,1.922-.839,2.701-.767.777.073,1.398.354,1.861.84.462.487.741,1.084.84,1.788.097.706-.037,1.424-.402,2.154-.364.729-.985,1.362-1.861,1.897-1.704,1.071-3.662,1.861-5.876,2.373-2.216.511-4.271.767-6.169.767Z"/>
    <path class="cls-2" d="M301.972,80.896c-3.164,0-5.803-.536-7.92-1.606s-3.687-2.64-4.709-4.709c-1.021-2.067-1.533-4.635-1.533-7.701v-15.548h-3.796c-1.168,0-2.068-.304-2.7-.912-.633-.608-.949-1.448-.949-2.519,0-1.119.316-1.972.949-2.556.632-.584,1.532-.876,2.7-.876h3.796v-6.643c0-1.508.402-2.652,1.205-3.432.803-.777,1.935-1.168,3.395-1.168s2.579.391,3.357,1.168c.778.779,1.168,1.924,1.168,3.432v6.643h7.738c1.168,0,2.068.292,2.701.876.632.584.949,1.437.949,2.556,0,1.07-.317,1.91-.949,2.519-.633.608-1.533.912-2.701.912h-7.738v15.038c0,2.336.512,4.088,1.533,5.256,1.022,1.168,2.676,1.752,4.964,1.752.827,0,1.558-.073,2.19-.219.632-.146,1.191-.243,1.679-.292.584-.048,1.07.135,1.46.547.39.414.584,1.254.584,2.519,0,.975-.158,1.838-.475,2.592-.316.755-.888,1.277-1.715,1.569-.634.194-1.46.377-2.482.548-1.021.17-1.923.256-2.701.256Z"/>
    <path class="cls-2" d="M325.404,80.896c-2.58,0-4.88-.5-6.898-1.497-2.021-.997-3.603-2.348-4.745-4.052-1.144-1.702-1.716-3.625-1.716-5.767,0-2.628.682-4.709,2.044-6.241,1.362-1.533,3.577-2.64,6.644-3.322,3.065-.681,7.178-1.021,12.337-1.021h3.65v5.256h-3.577c-3.019,0-5.428.146-7.228.438-1.801.292-3.078.791-3.832,1.496-.755.706-1.132,1.691-1.132,2.956,0,1.606.559,2.921,1.679,3.942,1.119,1.022,2.677,1.533,4.673,1.533,1.605,0,3.029-.377,4.27-1.132,1.241-.754,2.227-1.788,2.957-3.103.729-1.313,1.095-2.821,1.095-4.525v-8.396c0-2.433-.536-4.184-1.605-5.255-1.071-1.07-2.872-1.606-5.402-1.606-1.412,0-2.933.172-4.562.512-1.631.341-3.347.925-5.146,1.752-.925.438-1.74.56-2.445.365-.706-.194-1.254-.596-1.643-1.205-.391-.607-.584-1.277-.584-2.008s.193-1.447.584-2.153c.389-.705,1.046-1.229,1.971-1.569,2.238-.924,4.392-1.581,6.461-1.971,2.067-.39,3.953-.584,5.657-.584,3.504,0,6.388.536,8.65,1.605,2.263,1.071,3.953,2.689,5.073,4.854,1.119,2.166,1.68,4.953,1.68,8.358v17.521c0,1.509-.365,2.664-1.096,3.468-.729.803-1.776,1.204-3.139,1.204s-2.422-.401-3.176-1.204c-.755-.804-1.131-1.959-1.131-3.468v-3.504h.584c-.341,1.704-1.011,3.176-2.008,4.416-.998,1.241-2.252,2.203-3.76,2.884-1.509.681-3.236,1.022-5.183,1.022Z"/>
    <path class="cls-2" d="M358.838,80.75c-1.363,0-2.409-.39-3.139-1.168-.73-.778-1.096-1.849-1.096-3.212v-43.873c0-1.411.39-2.493,1.168-3.249.778-.754,1.85-1.131,3.213-1.131,1.216,0,2.177.231,2.883.693.705.463,1.351,1.254,1.935,2.372l18.031,33.361h-2.336l18.031-33.361c.584-1.118,1.216-1.909,1.897-2.372.681-.462,1.63-.693,2.847-.693,1.362,0,2.409.377,3.14,1.131.729.756,1.095,1.838,1.095,3.249v43.873c0,1.363-.354,2.434-1.059,3.212-.706.778-1.765,1.168-3.176,1.168-1.362,0-2.408-.39-3.139-1.168-.729-.778-1.095-1.849-1.095-3.212v-33.798h1.605l-15.33,27.958c-.486.828-.998,1.436-1.532,1.825-.536.39-1.267.584-2.19.584s-1.679-.207-2.263-.621c-.584-.413-1.095-1.01-1.533-1.788l-15.476-28.032h1.752v33.872c0,1.363-.354,2.434-1.059,3.212-.706.778-1.765,1.168-3.176,1.168Z"/>
    <path class="cls-2" d="M433.225,80.896c-3.699,0-6.911-.755-9.637-2.264-2.726-1.508-4.843-3.661-6.351-6.46-1.509-2.798-2.263-6.096-2.263-9.892,0-2.871.425-5.438,1.277-7.702.851-2.263,2.08-4.208,3.687-5.84,1.605-1.63,3.527-2.871,5.767-3.723,2.238-.851,4.745-1.277,7.52-1.277,3.697,0,6.909.755,9.636,2.263,2.725,1.509,4.842,3.65,6.351,6.424,1.508,2.774,2.264,6.059,2.264,9.855,0,2.872-.427,5.451-1.278,7.737-.852,2.288-2.08,4.247-3.687,5.877-1.605,1.631-3.528,2.872-5.767,3.723-2.239.852-4.745,1.278-7.519,1.278ZM433.225,73.961c1.8,0,3.382-.438,4.744-1.313s2.421-2.178,3.176-3.906c.754-1.727,1.132-3.88,1.132-6.46,0-3.894-.828-6.801-2.482-8.723-1.655-1.922-3.845-2.884-6.569-2.884-1.802,0-3.384.427-4.745,1.277-1.363.853-2.422,2.143-3.176,3.869-.755,1.729-1.132,3.882-1.132,6.461,0,3.845.827,6.752,2.482,8.724,1.653,1.971,3.844,2.956,6.57,2.956Z"/>
    <path class="cls-2" d="M463.664,80.75c-1.509,0-2.664-.401-3.468-1.204-.803-.804-1.204-1.959-1.204-3.468v-27.593c0-1.508.389-2.652,1.168-3.432s1.873-1.168,3.285-1.168,2.506.391,3.285,1.168c.777.779,1.168,1.924,1.168,3.432v4.599h-.73c.681-2.92,2.019-5.134,4.015-6.643,1.995-1.509,4.647-2.409,7.957-2.701,1.022-.098,1.837.158,2.446.767.607.608.96,1.545,1.059,2.811.097,1.217-.183,2.202-.84,2.956-.657.755-1.643,1.204-2.957,1.351l-1.605.146c-2.969.292-5.208,1.205-6.716,2.738-1.51,1.532-2.264,3.686-2.264,6.459v15.111c0,1.509-.39,2.664-1.168,3.468-.778.803-1.923,1.204-3.431,1.204Z"/>
    <path class="cls-2" d="M492.135,93.89c-1.461,0-2.581-.39-3.358-1.168-.779-.778-1.168-1.923-1.168-3.431v-40.806c0-1.508.389-2.652,1.168-3.432s1.873-1.168,3.285-1.168c1.46,0,2.579.391,3.357,1.168.778.779,1.168,1.924,1.168,3.432v5.693l-.803-2.189c.73-2.482,2.227-4.478,4.489-5.986,2.264-1.508,4.902-2.263,7.921-2.263,3.114,0,5.852.755,8.213,2.263,2.359,1.509,4.197,3.639,5.511,6.388,1.314,2.75,1.972,6.047,1.972,9.891,0,3.796-.657,7.094-1.972,9.892-1.313,2.799-3.139,4.952-5.475,6.46-2.336,1.509-5.086,2.264-8.249,2.264-2.969,0-5.573-.742-7.812-2.227s-3.748-3.419-4.525-5.804h.876v16.425c0,1.508-.401,2.652-1.205,3.431-.803.778-1.934,1.168-3.394,1.168ZM505.64,73.961c1.8,0,3.382-.438,4.745-1.313,1.361-.876,2.42-2.178,3.175-3.906.754-1.727,1.132-3.88,1.132-6.46,0-3.894-.828-6.801-2.482-8.723-1.654-1.922-3.845-2.884-6.569-2.884-1.802,0-3.384.427-4.745,1.277-1.363.853-2.422,2.143-3.176,3.869-.755,1.729-1.132,3.882-1.132,6.461,0,3.845.827,6.752,2.482,8.724,1.654,1.971,3.844,2.956,6.57,2.956Z"/>
    <path class="cls-2" d="M535.935,80.75c-1.461,0-2.581-.401-3.358-1.204-.779-.804-1.168-1.959-1.168-3.468v-43.362c0-1.508.389-2.651,1.168-3.431.777-.778,1.897-1.168,3.358-1.168s2.591.39,3.394,1.168c.804.779,1.205,1.923,1.205,3.431v18.907h-1.022c1.07-2.579,2.738-4.537,5.001-5.877,2.263-1.338,4.829-2.007,7.701-2.007s5.231.536,7.081,1.605c1.849,1.071,3.236,2.689,4.161,4.854.924,2.166,1.387,4.904,1.387,8.212v17.666c0,1.509-.39,2.664-1.168,3.468-.778.803-1.897,1.204-3.357,1.204s-2.592-.401-3.395-1.204-1.205-1.959-1.205-3.468v-17.229c0-2.773-.523-4.792-1.569-6.058-1.047-1.265-2.664-1.898-4.854-1.898-2.677,0-4.807.84-6.388,2.519-1.582,1.679-2.372,3.906-2.372,6.679v15.987c0,3.115-1.533,4.672-4.599,4.672Z"/>
    <path class="cls-2" d="M590.392,80.896c-3.699,0-6.911-.755-9.637-2.264-2.726-1.508-4.843-3.661-6.351-6.46-1.509-2.798-2.263-6.096-2.263-9.892,0-2.871.425-5.438,1.277-7.702.851-2.263,2.08-4.208,3.687-5.84,1.605-1.63,3.527-2.871,5.767-3.723,2.238-.851,4.745-1.277,7.52-1.277,3.697,0,6.909.755,9.636,2.263,2.725,1.509,4.842,3.65,6.351,6.424,1.508,2.774,2.264,6.059,2.264,9.855,0,2.872-.427,5.451-1.278,7.737-.852,2.288-2.08,4.247-3.687,5.877-1.605,1.631-3.528,2.872-5.767,3.723-2.239.852-4.745,1.278-7.519,1.278ZM590.392,73.961c1.8,0,3.382-.438,4.744-1.313s2.421-2.178,3.176-3.906c.754-1.727,1.132-3.88,1.132-6.46,0-3.894-.828-6.801-2.482-8.723-1.655-1.922-3.845-2.884-6.569-2.884-1.802,0-3.384.427-4.745,1.277-1.363.853-2.422,2.143-3.176,3.869-.755,1.729-1.132,3.882-1.132,6.461,0,3.845.827,6.752,2.482,8.724,1.653,1.971,3.844,2.956,6.57,2.956Z"/>
    <path class="cls-2" d="M629.226,80.896c-2.093,0-4.307-.22-6.643-.657-2.336-.438-4.429-1.192-6.278-2.264-.778-.485-1.326-1.058-1.643-1.715s-.438-1.314-.364-1.972c.072-.656.315-1.228.729-1.715.413-.486.949-.803,1.606-.949.657-.146,1.374-.024,2.153.365,1.946.925,3.771,1.569,5.475,1.935,1.703.364,3.382.547,5.037.547,2.336,0,4.076-.401,5.22-1.204,1.143-.803,1.716-1.861,1.716-3.176,0-1.119-.378-1.982-1.132-2.591-.755-.608-1.887-1.059-3.395-1.351l-7.3-1.388c-3.019-.584-5.317-1.69-6.898-3.321-1.582-1.63-2.373-3.734-2.373-6.314,0-2.335.645-4.354,1.935-6.058,1.289-1.703,3.078-3.018,5.366-3.942,2.286-.924,4.914-1.387,7.884-1.387,2.141,0,4.148.231,6.022.693,1.873.463,3.687,1.181,5.438,2.153.729.391,1.229.901,1.496,1.533.268.633.329,1.277.183,1.935-.146.657-.438,1.241-.876,1.752-.438.511-.985.828-1.643.949-.657.122-1.399-.012-2.227-.402-1.509-.777-2.956-1.338-4.343-1.679-1.388-.34-2.714-.511-3.979-.511-2.386,0-4.15.414-5.293,1.241-1.145.828-1.716,1.923-1.716,3.285,0,1.021.34,1.874,1.022,2.554.681.682,1.727,1.144,3.139,1.387l7.3,1.387c3.163.584,5.56,1.655,7.19,3.213s2.446,3.649,2.446,6.277c0,3.554-1.388,6.34-4.161,8.358-2.774,2.021-6.474,3.03-11.097,3.03Z"/>
    <path class="cls-2" d="M656.309,37.169c-1.704,0-3.03-.426-3.979-1.277-.949-.851-1.424-2.031-1.424-3.541,0-1.557.475-2.748,1.424-3.576.948-.827,2.274-1.241,3.979-1.241,1.752,0,3.09.414,4.015,1.241.924.828,1.387,2.02,1.387,3.576,0,1.51-.463,2.69-1.387,3.541-.925.852-2.263,1.277-4.015,1.277ZM656.309,80.677c-1.461,0-2.581-.438-3.358-1.313-.779-.876-1.168-2.092-1.168-3.65v-26.791c0-1.605.389-2.834,1.168-3.687.777-.851,1.897-1.277,3.358-1.277s2.591.427,3.394,1.277c.804.853,1.205,2.081,1.205,3.687v26.791c0,1.559-.391,2.774-1.168,3.65-.779.876-1.923,1.313-3.431,1.313Z"/>
    <path class="cls-2" d="M683.463,80.896c-2.093,0-4.307-.22-6.643-.657-2.336-.438-4.429-1.192-6.278-2.264-.778-.485-1.326-1.058-1.643-1.715s-.438-1.314-.364-1.972c.072-.656.315-1.228.729-1.715.413-.486.949-.803,1.606-.949.657-.146,1.374-.024,2.153.365,1.946.925,3.771,1.569,5.475,1.935,1.703.364,3.382.547,5.037.547,2.336,0,4.076-.401,5.22-1.204,1.143-.803,1.716-1.861,1.716-3.176,0-1.119-.378-1.982-1.132-2.591-.755-.608-1.887-1.059-3.395-1.351l-7.3-1.388c-3.019-.584-5.317-1.69-6.898-3.321-1.582-1.63-2.373-3.734-2.373-6.314,0-2.335.645-4.354,1.935-6.058,1.289-1.703,3.078-3.018,5.366-3.942,2.286-.924,4.914-1.387,7.884-1.387,2.141,0,4.148.231,6.022.693,1.873.463,3.687,1.181,5.438,2.153.729.391,1.229.901,1.496,1.533.268.633.329,1.277.183,1.935-.146.657-.438,1.241-.876,1.752-.438.511-.985.828-1.643.949-.657.122-1.399-.012-2.227-.402-1.509-.777-2.956-1.338-4.343-1.679-1.388-.34-2.714-.511-3.979-.511-2.386,0-4.15.414-5.293,1.241-1.145.828-1.716,1.923-1.716,3.285,0,1.021.34,1.874,1.022,2.554.681.682,1.727,1.144,3.139,1.387l7.3,1.387c3.163.584,5.56,1.655,7.19,3.213s2.446,3.649,2.446,6.277c0,3.554-1.388,6.34-4.161,8.358-2.774,2.021-6.474,3.03-11.097,3.03Z"/>
  </g>
</svg>